<svg id="Layer_1" data-name="Layer 1" xmlns="http://www.w3.org/2000/svg" viewBox="0 0 109.36 34.02"><title>nploy_logo_dark</title><path d="M220,289.28V283c0-1.79-1-3.15-2.79-3.2A3.16,3.16,0,0,0,214,283v6.28h-2.94v-12h1.67a1.11,1.11,0,0,1,1.1,1l.08.65a5.38,5.38,0,0,1,3.93-1.79c2.82,0,5.08,2.11,5.08,5.88v6.3Z" transform="translate(-165.7 -263.75)" fill="#2b3d4f"/><path d="M229.3,281.33h4.81a3,3,0,1,0,0-6H229.3Zm0,2.94v5h-3.21v-17h8c8.36,0,8.39,12,0,12Z" transform="translate(-165.7 -263.75)" fill="#2b3d4f"/><path d="M245.94,273.34v15.94H243v-17h1.83a1.11,1.11,0,0,1,1.11,1.11" transform="translate(-165.7 -263.75)" fill="#2b3d4f"/><path d="M251.52,283.3a3.26,3.26,0,1,0,6.51,0,3.38,3.38,0,0,0-3.26-3.55,3.29,3.29,0,0,0-3.25,3.55m9.5,0a6.24,6.24,0,1,1-6.27-6.25A6.06,6.06,0,0,1,261,283.3" transform="translate(-165.7 -263.75)" fill="#2b3d4f"/><path d="M275.06,277.29l-7.54,17.48h-3.26l2.46-5.69-4.79-11.79h2.67a1.1,1.1,0,0,1,1,.74l1.56,4.44,1.15,3.38,1.24-3.31,1.9-4.57a1.12,1.12,0,0,1,1-.68Z" transform="translate(-165.7 -263.75)" fill="#2b3d4f"/><path d="M182.71,290.62a9.92,9.92,0,0,1-8.71-5.18,8.21,8.21,0,0,1-.76-1.84A9.93,9.93,0,0,1,178,272.05a8.21,8.21,0,0,1,1.84-.76,9.94,9.94,0,0,1,11.55,4.78,8.12,8.12,0,0,1,.77,1.85,10.11,10.11,0,0,1-.44,6.82l1.78,1.77a12.59,12.59,0,0,0,.38-10.89,11.23,11.23,0,0,0-6.39-6.2,12.35,12.35,0,0,0-16.14,16.14,11.23,11.23,0,0,0,6.2,6.39,12.55,12.55,0,0,0,10.89-.39l-1.77-1.77a10,10,0,0,1-4,.83" transform="translate(-165.7 -263.75)" fill="#00e575"/><path d="M188.4,294.23a14.68,14.68,0,0,1-11.39,0,14.62,14.62,0,0,1-7.78-7.78,14.68,14.68,0,0,1,0-11.39,14.63,14.63,0,0,1,27,0,14.68,14.68,0,0,1,0,11.39,13.38,13.38,0,0,1-.92,1.81L197,290a17,17,0,1,0-5.05,5.05l-1.73-1.73a13.38,13.38,0,0,1-1.81.92" transform="translate(-165.7 -263.75)" fill="#1ce8b5"/><path d="M186.94,283.59a5.09,5.09,0,0,1-8.47,0,.34.34,0,0,1,.1-.48,7.95,7.95,0,0,1,8.27,0,.34.34,0,0,1,.1.48m-4.23-7.81a2.12,2.12,0,1,1-2.12,2.12,2.12,2.12,0,0,1,2.12-2.12m14.14,17.44-8.08-8.08a7.62,7.62,0,0,0,.84-7.37,6.91,6.91,0,0,0-3.92-3.92,7.55,7.55,0,0,0-9.89,9.89,6.92,6.92,0,0,0,3.91,3.92,7.64,7.64,0,0,0,7.38-.84l8.08,8.08a1,1,0,0,0,1.44,0l.24-.24a1,1,0,0,0,0-1.44" transform="translate(-165.7 -263.75)" fill="#2b3d4f"/></svg>